<svg id="paper-clip-outline" xmlns="http://www.w3.org/2000/svg" width="18.18" height="19.842" viewBox="0 0 18.18 19.842">
  <path id="Path_1" data-name="Path 1" d="M19.57,13.22l7.545-7.545a2.59,2.59,0,0,1,1.935-.818A2.528,2.528,0,0,1,31.595,7.4a2.59,2.59,0,0,1-.818,1.935l-5.324,5.324a.4.4,0,0,1-.286.13q-.208,0-.61-.4t-.4-.61a.4.4,0,0,1,.13-.286l5.324-5.324a1.107,1.107,0,0,0,.325-.766.844.844,0,0,0-.87-.87,1.115,1.115,0,0,0-.779.312l-7.545,7.545a2.586,2.586,0,0,0-.818,1.883,1.866,1.866,0,0,0,1.922,1.922,2.587,2.587,0,0,0,1.883-.818L33.8,7.285a3.209,3.209,0,0,0,.987-2.35,3.247,3.247,0,0,0-.948-2.35,3.118,3.118,0,0,0-2.324-.974,3.274,3.274,0,0,0-2.35,1L21.3,10.493a.41.41,0,0,1-.3.13q-.208,0-.6-.4t-.4-.6a.4.4,0,0,1,.13-.286l7.856-7.869A4.886,4.886,0,0,1,31.53,0a4.73,4.73,0,0,1,3.493,1.442,4.794,4.794,0,0,1,1.428,3.506,4.856,4.856,0,0,1-1.467,3.519L24.894,18.544a4.177,4.177,0,0,1-3.052,1.3,3.506,3.506,0,0,1-3.571-3.571A4.121,4.121,0,0,1,19.57,13.22Z" transform="translate(-18.271)" fill="#002e8a"/>
</svg>
