<svg xmlns="http://www.w3.org/2000/svg" width="9.245" height="9.249" viewBox="0 0 9.245 9.249">
  <g id="Icon_ionic-ios-close-circle-outline" data-name="Icon ionic-ios-close-circle-outline" transform="translate(-10.747 -10.743)">
    <path id="Path_21" data-name="Path 21" d="M21.332,20.027l-3.04-3.04,3.04-3.04a.922.922,0,0,0-1.3-1.3l-3.04,3.04-3.04-3.04a.922.922,0,0,0-1.3,1.3l3.04,3.04-3.04,3.04a.891.891,0,0,0,0,1.3.916.916,0,0,0,1.3,0l3.04-3.04,3.04,3.04a.926.926,0,0,0,1.3,0A.916.916,0,0,0,21.332,20.027Z" transform="translate(-1.613 -1.612)" fill="#ff6363"/>
  </g>
</svg>
