<svg xmlns="http://www.w3.org/2000/svg" width="24.615" height="32" viewBox="0 0 24.615 32">
  <g id="Icon_ionic-ios-download" data-name="Icon ionic-ios-download" transform="translate(-6.75 -3.375)">
    <path id="Path_14" data-name="Path 14" d="M28.288,10.125H20.058V23.963l3.685-3.631a1,1,0,0,1,1.408,1.423l-5.385,5.308a1.016,1.016,0,0,1-.7.285.954.954,0,0,1-.385-.077,1.069,1.069,0,0,1-.315-.208h0l-5.385-5.308a1,1,0,0,1,1.408-1.423l3.685,3.631V10.125H9.827A3.086,3.086,0,0,0,6.75,13.2V31.663A3.086,3.086,0,0,0,9.827,34.74H28.288a3.086,3.086,0,0,0,3.077-3.077V13.2A3.086,3.086,0,0,0,28.288,10.125Z" transform="translate(0 0.635)" fill="#002e8a"/>
    <path id="Path_15" data-name="Path 15" d="M19.086,4.375a1,1,0,0,0-2,0V10.76h2Z" transform="translate(0.972 0)" fill="#002e8a"/>
  </g>
</svg>
