<svg xmlns="http://www.w3.org/2000/svg" width="56.531" height="53" viewBox="0 0 56.531 53">
  <g id="excel" transform="translate(0 -15.989)">
    <path id="Path_2" data-name="Path 2" d="M282.5,118.876H257.767A1.767,1.767,0,0,1,256,117.109V81.778a1.767,1.767,0,0,1,1.767-1.767H282.5a1.767,1.767,0,0,1,1.767,1.767v35.332A1.767,1.767,0,0,1,282.5,118.876Z" transform="translate(-227.735 -56.953)" fill="#eceff1"/>
    <g id="Group_44" data-name="Group 44" transform="translate(28.265 30.125)">
      <path id="Path_3" data-name="Path 3" d="M264.833,147.544h-7.066a1.767,1.767,0,0,1,0-3.533h7.066a1.767,1.767,0,1,1,0,3.533Z" transform="translate(-256 -144.011)" fill="#388e3c"/>
      <path id="Path_4" data-name="Path 4" d="M264.833,211.544h-7.066a1.767,1.767,0,0,1,0-3.533h7.066a1.767,1.767,0,1,1,0,3.533Z" transform="translate(-256 -200.945)" fill="#388e3c"/>
      <path id="Path_5" data-name="Path 5" d="M264.833,275.544h-7.066a1.767,1.767,0,1,1,0-3.533h7.066a1.767,1.767,0,1,1,0,3.533Z" transform="translate(-256 -257.878)" fill="#388e3c"/>
      <path id="Path_6" data-name="Path 6" d="M264.833,339.544h-7.066a1.767,1.767,0,1,1,0-3.533h7.066a1.767,1.767,0,1,1,0,3.533Z" transform="translate(-256 -314.812)" fill="#388e3c"/>
      <path id="Path_7" data-name="Path 7" d="M389.3,147.544h-3.533a1.767,1.767,0,0,1,0-3.533H389.3a1.767,1.767,0,0,1,0,3.533Z" transform="translate(-369.867 -144.011)" fill="#388e3c"/>
      <path id="Path_8" data-name="Path 8" d="M389.3,211.544h-3.533a1.767,1.767,0,0,1,0-3.533H389.3a1.767,1.767,0,0,1,0,3.533Z" transform="translate(-369.867 -200.945)" fill="#388e3c"/>
      <path id="Path_9" data-name="Path 9" d="M389.3,275.544h-3.533a1.767,1.767,0,0,1,0-3.533H389.3a1.767,1.767,0,0,1,0,3.533Z" transform="translate(-369.867 -257.878)" fill="#388e3c"/>
      <path id="Path_10" data-name="Path 10" d="M389.3,339.544h-3.533a1.767,1.767,0,1,1,0-3.533H389.3a1.767,1.767,0,0,1,0,3.533Z" transform="translate(-369.867 -314.812)" fill="#388e3c"/>
    </g>
    <path id="Path_11" data-name="Path 11" d="M31.159,16.4a1.736,1.736,0,0,0-1.452-.375l-28.265,5.3A1.762,1.762,0,0,0,0,23.058V61.923a1.764,1.764,0,0,0,1.442,1.735l28.265,5.3a1.662,1.662,0,0,0,.325.032A1.767,1.767,0,0,0,31.8,67.223V17.758A1.762,1.762,0,0,0,31.159,16.4Z" transform="translate(0 0)" fill="#2e7d32"/>
    <path id="Path_12" data-name="Path 12" d="M95.447,176.528l-5.586-6.384,5.65-7.264a1.767,1.767,0,0,0-2.788-2.173l-5.233,6.727L83.08,162.4a1.765,1.765,0,1,0-2.657,2.325l4.858,5.554-4.925,6.331a1.768,1.768,0,0,0,2.791,2.169l4.5-5.794,5.137,5.869a1.764,1.764,0,1,0,2.657-2.321Z" transform="translate(-71.152 -128.134)" fill="#fafafa"/>
  </g>
</svg>
