<svg xmlns="http://www.w3.org/2000/svg" width="16" height="14.665" viewBox="0 0 16 14.665">
  <path id="Icon_awesome-file-export" data-name="Icon awesome-file-export" d="M10.668,3.491a.7.7,0,0,0-.194-.484L7.753.2A.656.656,0,0,0,7.281,0H7.112V3.666h3.556Zm5.195,5.33L13.2,6.061a.444.444,0,0,0-.761.324V8.249H10.665v1.833h1.778V11.95a.444.444,0,0,0,.761.324l2.659-2.764A.5.5,0,0,0,15.862,8.822Zm-10.529.8V8.707a.453.453,0,0,1,.444-.458h4.889V4.583H6.889A.679.679,0,0,1,6.223,3.9V0H.667A.676.676,0,0,0,0,.687v13.29a.676.676,0,0,0,.667.687H10a.676.676,0,0,0,.667-.687v-3.9H5.778A.453.453,0,0,1,5.334,9.624Z" fill="#fff"/>
</svg>
