<svg xmlns="http://www.w3.org/2000/svg" width="112" height="101.026" viewBox="0 0 112 101.026">
  <g id="file-upload_1_" data-name="file-upload (1)" transform="translate(-0.583 -2.29)">
    <g id="Group_60" data-name="Group 60" transform="translate(0.583 2.29)">
      <path id="Path_28" data-name="Path 28" d="M101.062,21.862c0,22.241,11.521,37.513,11.521,48.23s-6.161,33.224-55.461,33.224S.583,73.037.583,61.25c0-55.2,100.479-78.776,100.479-39.388Z" transform="translate(-0.583 -2.29)" fill="#efefef"/>
    </g>
    <g id="Group_61" data-name="Group 61" transform="translate(85.523 4.573)">
      <path id="Path_29" data-name="Path 29" d="M31.823,12.646a4.823,4.823,0,1,1,4.823-4.823A4.829,4.829,0,0,1,31.823,12.646Zm0-6.431a1.608,1.608,0,1,0,1.608,1.608A1.61,1.61,0,0,0,31.823,6.215Z" transform="translate(-27 -3)" fill="#a4afc1"/>
    </g>
    <g id="Group_62" data-name="Group 62" transform="translate(20.412 29.492)">
      <path id="Path_30" data-name="Path 30" d="M75.88,10.75A3.217,3.217,0,0,1,79.1,13.965V49.334H6.75V13.965A3.217,3.217,0,0,1,9.965,10.75Z" transform="translate(-6.75 -10.75)" fill="#f3f3f1"/>
    </g>
    <g id="Group_63" data-name="Group 63" transform="translate(20.412 68.076)">
      <path id="Path_31" data-name="Path 31" d="M6.75,22.75H79.1v8.038A3.217,3.217,0,0,1,75.88,34H9.965A3.217,3.217,0,0,1,6.75,30.788Z" transform="translate(-6.75 -22.75)" fill="#0fd07b"/>
    </g>
    <g id="Group_64" data-name="Group 64" transform="translate(46.135 79.329)">
      <path id="Path_32" data-name="Path 32" d="M30.827,26.25A18.878,18.878,0,0,0,35.585,35.9H14.75a18.594,18.594,0,0,0,4.759-9.646Z" transform="translate(-14.75 -26.25)" fill="#0fd07b"/>
    </g>
    <g id="Group_65" data-name="Group 65" transform="translate(20.412 68.076)">
      <path id="Path_33" data-name="Path 33" d="M13.985,30.788V22.75H6.75v8.038A3.217,3.217,0,0,0,9.965,34H17.2A3.217,3.217,0,0,1,13.985,30.788Z" transform="translate(-6.75 -22.75)" fill="#00b871"/>
    </g>
    <g id="Group_66" data-name="Group 66" transform="translate(46.135 79.329)">
      <path id="Path_34" data-name="Path 34" d="M19.509,26.25A18.594,18.594,0,0,1,14.75,35.9h7.235a18.594,18.594,0,0,0,4.759-9.646Z" transform="translate(-14.75 -26.25)" fill="#002e8a"/>
    </g>
    <g id="Group_67" data-name="Group 67" transform="translate(20.412 29.492)">
      <path id="Path_35" data-name="Path 35" d="M17.2,10.75H9.965A3.217,3.217,0,0,0,6.75,13.965V49.334h7.235V13.965A3.217,3.217,0,0,1,17.2,10.75Z" transform="translate(-6.75 -10.75)" fill="#d5dbe1"/>
    </g>
    <g id="Group_68" data-name="Group 68" transform="translate(40.508 36.726)">
      <path id="Path_36" data-name="Path 36" d="M39.527,25.861h-20.9A5.633,5.633,0,0,1,13,20.235V13h4.823v7.235a.8.8,0,0,0,.8.8h20.9a.8.8,0,0,0,.8-.8V13h4.823v7.235A5.633,5.633,0,0,1,39.527,25.861Z" transform="translate(-13 -13)" fill="#002e8a"/>
    </g>
    <g id="Group_76" data-name="Group 76" transform="translate(45.938 14.22)">
      <g id="Group_69" data-name="Group 69" transform="translate(8.234 0)">
        <path id="Path_37" data-name="Path 37" d="M17.25,30.615h4.823V6.5H17.25Z" transform="translate(-17.25 -6.5)" fill="#002e8a"/>
      </g>
      <g id="Group_70" data-name="Group 70" transform="translate(0 12.665)">
        <path id="Path_38" data-name="Path 38" d="M32.57,6l-7.235,7.235L18.1,6,14.689,9.412l8.939,8.939a2.412,2.412,0,0,0,3.411,0l8.942-8.939Z" transform="translate(-14.689 -6)" fill="#002e8a"/>
      </g>
    </g>
    <g id="Group_71" data-name="Group 71" transform="translate(18.001 27.08)">
      <path id="Path_39" data-name="Path 39" d="M77.541,64.661H11.627A5.633,5.633,0,0,1,6,59.034V15.627A5.633,5.633,0,0,1,11.627,10H25.292v4.823H11.627a.8.8,0,0,0-.8.8V59.034a.8.8,0,0,0,.8.8H77.541a.8.8,0,0,0,.8-.8V15.627a.8.8,0,0,0-.8-.8H63.876V10H77.541a5.633,5.633,0,0,1,5.627,5.627V59.034A5.633,5.633,0,0,1,77.541,64.661Z" transform="translate(-6 -10)" fill="#002e8a"/>
    </g>
    <g id="Group_72" data-name="Group 72" transform="translate(20.412 65.664)">
      <path id="Path_40" data-name="Path 40" d="M6.75,22H79.1v4.823H6.75Z" transform="translate(-6.75 -22)" fill="#002e8a"/>
    </g>
    <g id="Group_73" data-name="Group 73" transform="translate(43.723 78.992)">
      <path id="Path_41" data-name="Path 41" d="M37.311,38.54h-20.9a2.41,2.41,0,0,1-1.7-4.116,16.371,16.371,0,0,0,4.074-8.254l4.781.627a21.623,21.623,0,0,1-2.392,6.919H32.5a22.12,22.12,0,0,1-2.4-6.9l4.775-.669a16.721,16.721,0,0,0,3.807,8,2.411,2.411,0,0,1-1.37,4.4Z" transform="translate(-14 -26.145)" fill="#002e8a"/>
    </g>
    <g id="Group_74" data-name="Group 74" transform="translate(5.139 86.564)">
      <path id="Path_42" data-name="Path 42" d="M2,28.5H104.891v4.823H2Z" transform="translate(-2 -28.5)" fill="#002e8a"/>
    </g>
  </g>
</svg>
