<svg xmlns="http://www.w3.org/2000/svg" width="14.268" height="13.377" viewBox="0 0 14.268 13.377">
  <g id="excel_1_" data-name="excel (1)" transform="translate(0 -15.989)">
    <g id="Group_48" data-name="Group 48" transform="translate(0 15.989)">
      <g id="Group_47" data-name="Group 47">
        <path id="Path_16" data-name="Path 16" d="M13.822,17.774h-5.8V16.436a.445.445,0,0,0-.161-.343A.438.438,0,0,0,7.5,16L.364,17.336A.445.445,0,0,0,0,17.774v9.809a.445.445,0,0,0,.364.438L7.5,29.358a.42.42,0,0,0,.082.008.446.446,0,0,0,.446-.446V27.583h5.8a.446.446,0,0,0,.446-.446V18.219A.446.446,0,0,0,13.822,17.774Zm-7.69,6.395a.446.446,0,1,1-.671.587l-1.3-1.481L3.027,24.736a.446.446,0,0,1-.7-.548l1.243-1.6-1.226-1.4a.446.446,0,0,1,.671-.587l1.113,1.272,1.321-1.7a.446.446,0,1,1,.7.548L4.722,22.557Zm7.245,2.523H8.026V25.8H9.363a.446.446,0,0,0,0-.892H8.026v-.892H9.363a.446.446,0,0,0,0-.892H8.026v-.892H9.363a.446.446,0,0,0,0-.892H8.026v-.892H9.363a.446.446,0,0,0,0-.892H8.026v-.892h5.351Z" transform="translate(0 -15.989)" fill="#fff"/>
      </g>
    </g>
    <g id="Group_50" data-name="Group 50" transform="translate(10.701 19.557)">
      <g id="Group_49" data-name="Group 49">
        <path id="Path_17" data-name="Path 17" d="M385.338,144.011h-.892a.446.446,0,1,0,0,.892h.892a.446.446,0,0,0,0-.892Z" transform="translate(-384 -144.011)" fill="#fff"/>
      </g>
    </g>
    <g id="Group_52" data-name="Group 52" transform="translate(10.701 21.341)">
      <g id="Group_51" data-name="Group 51">
        <path id="Path_18" data-name="Path 18" d="M385.338,208.011h-.892a.446.446,0,1,0,0,.892h.892a.446.446,0,0,0,0-.892Z" transform="translate(-384 -208.011)" fill="#fff"/>
      </g>
    </g>
    <g id="Group_54" data-name="Group 54" transform="translate(10.701 23.124)">
      <g id="Group_53" data-name="Group 53">
        <path id="Path_19" data-name="Path 19" d="M385.338,272.011h-.892a.446.446,0,1,0,0,.892h.892a.446.446,0,0,0,0-.892Z" transform="translate(-384 -272.011)" fill="#fff"/>
      </g>
    </g>
    <g id="Group_56" data-name="Group 56" transform="translate(10.701 24.908)">
      <g id="Group_55" data-name="Group 55">
        <path id="Path_20" data-name="Path 20" d="M385.338,336.011h-.892a.446.446,0,1,0,0,.892h.892a.446.446,0,0,0,0-.892Z" transform="translate(-384 -336.011)" fill="#fff"/>
      </g>
    </g>
  </g>
</svg>
